<?xml version="1.0"?><svg width="640" height="480" xmlns="http://www.w3.org/2000/svg">
 <!-- Created with SVG-edit - http://svg-edit.googlecode.com/ -->
 <title>lined_paper</title>
 <g>
  <title>Layer 1</title>
  <line x1="0" id="svg_6" y2="31" x2="640" y1="31" stroke-width="1.668896px" stroke="#005fbf" fill="none"/>
  <line id="svg_7" y2="63" x2="640" y1="63" x1="0" stroke-width="1.668896px" stroke="#005fbf" fill="none"/>
  <line x1="0" id="svg_10" y2="95" x2="640" y1="95" stroke-width="1.668896px" stroke="#005fbf" fill="none"/>
  <line id="svg_11" y2="127" x2="640" y1="127" x1="0" stroke-width="1.668896px" stroke="#005fbf" fill="none"/>
  <line x1="0" id="svg_12" y2="159" x2="640" y1="159" stroke-width="1.668896px" stroke="#005fbf" fill="none"/>
  <line id="svg_13" y2="191" x2="640" y1="191" x1="0" stroke-width="1.668896px" stroke="#005fbf" fill="none"/>
  <line id="svg_14" x1="0" y2="223" x2="640" y1="223" stroke-width="1.668896px" stroke="#005fbf" fill="none"/>
  <line id="svg_15" y2="255" x2="640" y1="255" x1="0" stroke-width="1.668896px" stroke="#005fbf" fill="none"/>
  <line x1="0" id="svg_16" y2="287" x2="640" y1="287" stroke-width="1.668896px" stroke="#005fbf" fill="none"/>
  <line id="svg_17" y2="319" x2="640" y1="319" x1="0" stroke-width="1.668896px" stroke="#005fbf" fill="none"/>
  <line id="svg_18" x1="0" y2="351" x2="640" y1="351" stroke-width="1.668896px" stroke="#005fbf" fill="none"/>
  <line id="svg_19" y2="383" x2="640" y1="383" x1="0" stroke-width="1.668896px" stroke="#005fbf" fill="none"/>
  <line id="svg_20" x1="0" y2="415" x2="640" y1="415" stroke-width="1.668896px" stroke="#005fbf" fill="none"/>
  <line id="svg_21" y2="447" x2="640" y1="447" x1="0" stroke-width="1.668896px" stroke="#005fbf" fill="none"/>
  <line id="svg_22" x1="0" y2="479.125" x2="640" y1="479.125" stroke-width="1.668896px" stroke="#005fbf" fill="none"/>
 </g>
</svg>